<svg width="47" height="47" viewBox="0 0 47 47" fill="none" xmlns="http://www.w3.org/2000/svg">
<path d="M23.4629 12.8424C25.8129 12.8424 27.7682 10.9605 27.7682 8.53711C27.7682 7.75684 27.5295 6.96738 27.1439 6.34316L23.4629 0L19.7818 6.34316C19.3871 6.96738 19.1576 7.75684 19.1576 8.53711C19.1484 10.8871 21.1129 12.8424 23.4629 12.8424ZM33.2484 34.1576L30.9811 31.8902L28.7137 34.1576C25.8955 36.9758 21.0395 36.9758 18.2947 34.1576L16.0273 31.8902L13.76 34.1576C12.3463 35.5713 10.5471 36.3516 8.5918 36.3516C7.02207 36.3516 5.61758 35.8834 4.44258 35.0205V44.8887C4.44258 46.0637 5.37891 47 6.55391 47H40.7115C41.8865 47 42.8229 46.0637 42.8229 44.8887V35.0113C41.6479 35.8742 40.1607 36.3424 38.6736 36.3424C36.5439 36.3424 34.6621 35.5621 33.2484 34.1576ZM36.2318 19.1947H25.5742V14.8895H21.2689V19.1947H10.6113C7.08633 19.1947 4.18555 22.0955 4.18555 25.6205V28.9068C4.18555 31.1742 6.06738 33.0561 8.33477 33.0561C9.42715 33.0561 10.5287 32.5879 11.309 31.7984L15.8529 27.2545L20.3969 31.7984C21.9666 33.3682 24.7022 33.3682 26.3545 31.7984L30.8984 27.2545L35.4424 31.7984C36.2227 32.5787 37.2416 33.0561 38.4166 33.0561C40.684 33.0561 42.5658 31.1742 42.5658 28.9068V25.6113C42.6484 22.0863 39.8303 19.1947 36.2318 19.1947Z" fill="#2E1313"/>
</svg>
