<svg width="28" height="33" viewBox="0 0 28 33" fill="none" xmlns="http://www.w3.org/2000/svg">
<path d="M14.0439 9.01699C15.6939 9.01699 17.0668 7.6957 17.0668 5.99414C17.0668 5.44629 16.8992 4.89199 16.6285 4.45371L14.0439 0L11.4594 4.45371C11.1822 4.89199 11.0211 5.44629 11.0211 5.99414C11.0146 7.64414 12.3939 9.01699 14.0439 9.01699ZM20.9146 23.983L19.3227 22.391L17.7307 23.983C15.752 25.9617 12.3424 25.9617 10.4152 23.983L8.82324 22.391L7.23125 23.983C6.23867 24.9756 4.97539 25.5234 3.60254 25.5234C2.50039 25.5234 1.51426 25.1947 0.689257 24.5889V31.5176C0.689257 32.3426 1.34668 33 2.17168 33H26.1547C26.9797 33 27.6371 32.3426 27.6371 31.5176V24.5824C26.8121 25.1883 25.768 25.517 24.7238 25.517C23.2285 25.517 21.9072 24.9691 20.9146 23.983ZM23.0094 13.4771H15.5264V10.4543H12.5035V13.4771H5.02051C2.54551 13.4771 0.508789 15.5139 0.508789 17.9889V20.2963C0.508789 21.8883 1.83008 23.2096 3.42207 23.2096C4.18906 23.2096 4.9625 22.8809 5.51035 22.3266L8.70078 19.1361L11.8912 22.3266C12.9934 23.4287 14.9141 23.4287 16.0742 22.3266L19.2646 19.1361L22.4551 22.3266C23.0029 22.8744 23.7184 23.2096 24.5434 23.2096C26.1354 23.2096 27.4566 21.8883 27.4566 20.2963V17.9824C27.5146 15.5074 25.5359 13.4771 23.0094 13.4771Z" fill="#2E1313"/>
</svg>
