<svg width="34" height="22" viewBox="0 0 34 22" fill="none" xmlns="http://www.w3.org/2000/svg">
<g clip-path="url(#clip0_2033_13)">
<path fill-rule="evenodd" clip-rule="evenodd" d="M25.8542 7.27925C25.04 5.05872 21.5798 0.501815 14.2521 0.0384011C6.92457 -0.425012 4.38027 3.41753 3.56609 5.54152C3.25723 5.90782 2.34848 6.75207 1.1812 7.23937C0.531991 7.51039 0 8.07955 0 8.76549V16.0417C0 16.8011 0.634265 17.4167 1.41667 17.4167H2.34483C2.4466 16.3547 3.44396 14.2307 6.61923 14.2307C9.79455 14.2307 10.8611 16.8374 10.8611 17.4167H21.5798C21.5986 17.363 21.6184 17.3038 21.6397 17.24C21.9639 16.2704 22.6458 14.2307 25.8542 14.2307C29.2737 14.2307 30.1286 16.3547 30.1286 17.4167H32.5833C33.3658 17.4167 34 16.8011 34 16.0417V11.624C33.8982 10.5619 32.6933 7.27925 25.8542 7.27925ZM13.4583 1.375C17.6821 1.375 22.3886 3.75833 24.3194 7.33333H14.875C14.0926 7.33333 13.4583 6.71775 13.4583 5.95833V1.375Z" fill="#4C32B7"/>
<path d="M6.611 22C8.56701 22 10.1527 20.461 10.1527 18.5625C10.1527 16.664 8.56701 15.125 6.611 15.125C4.65499 15.125 3.06934 16.664 3.06934 18.5625C3.06934 20.461 4.65499 22 6.611 22Z" fill="#4C32B7"/>
<path d="M25.9723 22C27.9283 22 29.514 20.461 29.514 18.5625C29.514 16.664 27.9283 15.125 25.9723 15.125C24.0163 15.125 22.4307 16.664 22.4307 18.5625C22.4307 20.461 24.0163 22 25.9723 22Z" fill="#4C32B7"/>
</g>
<defs>
<clipPath id="clip0_2033_13">
<rect width="34" height="22" fill="white"/>
</clipPath>
</defs>
</svg>
