<svg width="72" height="48" viewBox="0 0 72 48" fill="none" xmlns="http://www.w3.org/2000/svg">
<path fill-rule="evenodd" clip-rule="evenodd" d="M54.75 15.882C53.0259 11.0372 45.6983 1.09487 30.181 0.0837842C14.6638 -0.9273 9.27586 7.45642 7.55172 12.0906C6.89767 12.8898 4.97326 14.7318 2.50136 15.795C1.12657 16.3863 0 17.6281 0 19.1247V35C0 36.6569 1.34315 38 3 38H4.96552C5.18103 35.6829 7.2931 31.0488 14.0172 31.0488C20.7414 31.0488 23 36.7361 23 38H45.6983C45.7382 37.8829 45.7801 37.7538 45.8253 37.6145C46.5118 35.499 47.9559 31.0488 54.75 31.0488C61.9914 31.0488 63.8017 35.6829 63.8017 38H69C70.6569 38 72 36.6569 72 35V25.3615C71.7845 23.0442 69.2328 15.882 54.75 15.882ZM28.5 3C37.4444 3 47.4111 8.2 51.5 16H31.5C29.8431 16 28.5 14.6569 28.5 13V3Z" fill="#A196CB"/>
<circle cx="14" cy="40.5" r="7.5" fill="#A196CB"/>
<circle cx="55" cy="40.5" r="7.5" fill="#A196CB"/>
</svg>
