<svg width="38" height="36" viewBox="0 0 38 36" fill="none" xmlns="http://www.w3.org/2000/svg">
<path fill-rule="evenodd" clip-rule="evenodd" d="M5.33244 2.76125L1.25901 12.1883C-0.0623836 15.2464 -0.352894 18.6514 0.431348 21.8891C2.40239 30.0266 9.68718 35.7575 18.0599 35.7575H18.6739C26.9374 35.7575 34.2195 30.3295 36.5803 22.4105C37.6414 18.8511 37.4155 15.0317 35.9423 11.6222L31.7999 2.03544C30.5624 -0.828288 26.4346 -0.622113 25.4888 2.35067L23.723 7.90033C20.4309 6.40101 16.6547 6.38103 13.347 7.84543L13.223 7.90033L11.8923 3.19562C10.9989 0.0368322 6.63453 -0.252158 5.33244 2.76125ZM21.4711 12.4224C20.0457 11.8624 18.4248 12.1824 17.3193 13.2422L15.262 15.2144C14.6639 15.7877 13.7144 15.7676 13.1411 15.1696C12.5678 14.5716 12.5879 13.622 13.1859 13.0488L15.2432 11.0766C17.1937 9.20681 20.0535 8.64214 22.5682 9.63023L22.7275 9.69279C25.2814 10.6963 26.9609 13.1607 26.9609 15.9047V16.3893C26.9609 17.2077 26.752 18.0124 26.354 18.7275C25.3429 20.5439 23.6227 21.8588 21.6045 22.3577L21.277 22.4387C20.696 22.5824 20.2879 23.1037 20.2879 23.7021V25.8628C20.2879 26.6912 19.6163 27.3628 18.7879 27.3628C17.9594 27.3628 17.2879 26.6912 17.2879 25.8628V23.7021C17.2879 21.7242 18.6368 20.0011 20.5569 19.5264L20.8845 19.4454C22.0948 19.1462 23.1264 18.3577 23.7327 17.2683C23.8824 16.9995 23.9609 16.697 23.9609 16.3893V15.9047C23.9609 14.3941 23.0363 13.0374 21.6303 12.485L21.4711 12.4224ZM18.7179 32.9797C19.7522 32.9797 20.5907 32.1412 20.5907 31.1069C20.5907 30.0725 19.7522 29.234 18.7179 29.234C17.6835 29.234 16.845 30.0725 16.845 31.1069C16.845 32.1412 17.6835 32.9797 18.7179 32.9797Z" fill="#2E1313"/>
</svg>
