<svg width="41" height="35" viewBox="0 0 41 35" fill="none" xmlns="http://www.w3.org/2000/svg">
<path fill-rule="evenodd" clip-rule="evenodd" d="M20.2656 7.73571L16.0131 2.9713C14.3258 1.08089 11.9122 0 9.37828 0C5.46982 0 2.01946 2.55181 0.874885 6.28892L0.65001 7.02316C-0.944041 12.2279 0.443737 17.8875 4.26464 21.7645L15.2431 32.9038C17.9974 35.6985 22.5125 35.6777 25.2409 32.8577L34.5476 23.2387L33.4273 16.8534C33.3655 16.5011 33.2187 16.3247 33.0823 16.2219C32.9231 16.1019 32.6907 16.0212 32.4229 16.0264C32.1552 16.0316 31.9261 16.1213 31.7717 16.2474C31.6394 16.3554 31.4995 16.5374 31.4514 16.8918L31.0358 19.957C30.4876 24.0002 24.9481 24.7239 23.3795 20.9573L22.2361 18.2118L20.6734 23.0528L20.2262 24.4384H18.7701H11.0625C9.95797 24.4384 9.06254 23.5429 9.06254 22.4384C9.06254 21.3338 9.95797 20.4384 11.0625 20.4384H17.3141L18.4295 16.983C19.5714 13.4457 24.4996 13.2426 25.9287 16.674L27.0721 19.4195L27.4877 16.3544C28.255 10.6958 36.3804 10.5377 37.3672 16.1622L37.9303 19.3722C40.2436 15.8586 40.9798 11.4801 39.8557 7.3363L39.7088 6.79481C38.6209 2.78426 34.9807 0 30.8252 0C28.0044 0 25.3393 1.29347 23.5939 3.50959L20.2656 7.73571Z" fill="#2E1313"/>
</svg>
