<svg width="31" height="27" viewBox="0 0 31 27" fill="none" xmlns="http://www.w3.org/2000/svg">
<path fill-rule="evenodd" clip-rule="evenodd" d="M12.7925 0.794879L1.4509 9.2633C-0.106852 10.4264 -0.464243 12.614 0.642344 14.2124L3.28659 12.2292L5.13944 23.0094C5.46936 24.929 7.13393 26.3319 9.08163 26.3319H21.2898C23.2375 26.3319 24.902 24.929 25.2319 23.0094L27.0848 12.2292L29.729 14.2124C30.8356 12.614 30.4782 10.4264 28.9205 9.2633L17.5788 0.794879C16.1594 -0.26496 14.212 -0.26496 12.7925 0.794879ZM15.1859 19.0602C18.1066 19.0602 20.4744 16.6925 20.4744 13.7717C20.4744 10.851 18.1066 8.48325 15.1859 8.48325C12.2651 8.48325 9.89739 10.851 9.89739 13.7717C9.89739 16.6925 12.2651 19.0602 15.1859 19.0602Z" fill="#2E1313"/>
</svg>
