<svg width="73" height="62" viewBox="0 0 73 62" fill="none" xmlns="http://www.w3.org/2000/svg">
<path fill-rule="evenodd" clip-rule="evenodd" d="M33.6216 1.29488L1.60712 25.1991C-0.118353 26.4874 -0.514229 28.9105 0.711502 30.681L3.01479 34.008L9.01479 29.508L13.9437 58.1856C14.2737 60.1051 15.9382 61.508 17.8859 61.508H54.1436C56.0913 61.508 57.7559 60.1051 58.0858 58.1856L63.0148 29.508L69.0148 34.008L71.3181 30.681C72.5438 28.9105 72.1479 26.4874 70.4225 25.1991L38.4079 1.29488C36.9885 0.23504 35.0411 0.23504 33.6216 1.29488ZM36.0148 45.008C42.6422 45.008 48.0148 39.6354 48.0148 33.008C48.0148 26.3806 42.6422 21.008 36.0148 21.008C29.3874 21.008 24.0148 26.3806 24.0148 33.008C24.0148 39.6354 29.3874 45.008 36.0148 45.008Z" fill="#A196CB"/>
</svg>
