<svg width="32" height="27" viewBox="0 0 32 27" fill="none" xmlns="http://www.w3.org/2000/svg">
<path fill-rule="evenodd" clip-rule="evenodd" d="M12.6875 3.375C12.6875 2.75368 13.1912 2.25 13.8125 2.25H19.4375C20.0588 2.25 20.5625 2.75368 20.5625 3.375V5.625H12.6875V3.375ZM10.4375 5.625V3.375C10.4375 1.51104 11.9485 0 13.8125 0H19.4375C21.3015 0 22.8125 1.51104 22.8125 3.375V5.625H27.8125C30.0216 5.625 31.8125 7.41586 31.8125 9.625V23C31.8125 25.2091 30.0216 27 27.8125 27H4.875C2.66586 27 0.875 25.2091 0.875 23V9.625C0.875 7.41586 2.66586 5.625 4.875 5.625H10.4375ZM16.625 8.8125C18.2819 8.8125 19.625 10.1556 19.625 11.8125V13.5938H21.4062C23.0631 13.5938 24.4062 14.9369 24.4062 16.5938C24.4062 18.2506 23.0631 19.5938 21.4062 19.5938H19.625V21.375C19.625 23.0319 18.2819 24.375 16.625 24.375C14.9681 24.375 13.625 23.0319 13.625 21.375V19.5938H11.8438C10.1869 19.5937 8.84375 18.2506 8.84375 16.5937C8.84375 14.9369 10.1869 13.5937 11.8438 13.5937H13.625V11.8125C13.625 10.1556 14.9681 8.8125 16.625 8.8125Z" fill="#2E1313"/>
</svg>
