<svg width="55" height="48" viewBox="0 0 55 48" fill="none" xmlns="http://www.w3.org/2000/svg">
<path fill-rule="evenodd" clip-rule="evenodd" d="M21 6C21 4.89543 21.8954 4 23 4H33C34.1046 4 35 4.89543 35 6V10H21V6ZM17 10V6C17 2.68629 19.6863 0 23 0H33C36.3137 0 39 2.68629 39 6V10H51C53.2091 10 55 11.7909 55 14V44C55 46.2091 53.2091 48 51 48H4C1.79086 48 0 46.2091 0 44V14C0 11.7909 1.79086 10 4 10H17ZM28 17C30.2091 17 32 18.7909 32 21V25.5H36.5C38.7091 25.5 40.5 27.2909 40.5 29.5C40.5 31.7091 38.7091 33.5 36.5 33.5H32V38C32 40.2091 30.2091 42 28 42C25.7909 42 24 40.2091 24 38V33.5H19.5C17.2909 33.5 15.5 31.7091 15.5 29.5C15.5 27.2909 17.2909 25.5 19.5 25.5H24V21C24 18.7909 25.7909 17 28 17Z" fill="#4C32B7" fill-opacity="0.4"/>
</svg>
