<svg width="28" height="26" viewBox="0 0 28 26" fill="none" xmlns="http://www.w3.org/2000/svg">
<path d="M13.494 6.41743C13.494 7.06324 13.3926 7.70905 13.1951 8.30683C12.9977 8.90461 12.6507 9.40098 12.1544 9.84931C11.658 10.2976 11.1136 10.4951 10.4144 10.4951C9.57112 10.4951 8.82389 10.1962 8.13004 9.55042C7.43619 8.90461 6.93982 8.15739 6.64094 7.31409C6.29401 6.4708 6.14457 5.62217 6.14457 4.83225C6.14457 4.18643 6.24597 3.54062 6.44346 2.94284C6.64094 2.34506 6.98786 1.84869 7.48423 1.40036C7.9806 0.952025 8.525 0.754545 9.21885 0.754545C10.0621 0.754545 10.8094 1.05343 11.5032 1.69925C12.1971 2.34506 12.6934 3.09228 12.9923 3.93558C13.3446 4.77887 13.494 5.62217 13.494 6.41743ZM7.87919 14.37C7.87919 15.2667 7.62834 16.0086 7.18534 16.6544C6.74234 17.3002 6.09119 17.6471 5.2479 17.6471C4.4046 17.6471 3.65738 17.3482 2.91016 16.7504C2.16294 16.1527 1.61853 15.4108 1.27161 14.5622C0.924681 13.7242 0.673828 12.8809 0.673828 12.0856C0.673828 11.189 0.924681 10.4471 1.36768 9.80128C1.81601 9.15546 2.46183 8.80854 3.30512 8.80854C4.14841 8.80854 4.89564 9.10743 5.64286 9.70521C6.39008 10.303 6.93449 11.0449 7.28141 11.8935C7.62834 12.7315 7.87919 13.5267 7.87919 14.37ZM14.3373 13.9217C15.629 13.9217 17.022 14.4661 18.5111 15.5122C20.0002 16.553 21.2438 17.898 22.2846 19.3871C23.2773 20.9296 23.7737 22.3173 23.7737 23.5609C23.7737 24.0572 23.6723 24.5056 23.4748 24.8044C23.2773 25.1514 23.0265 25.4022 22.6795 25.5517C22.3326 25.7011 21.9857 25.8025 21.6388 25.8986C21.2918 25.9466 20.8435 26 20.3952 26C19.6479 26 18.6072 25.7491 17.3155 25.2528C16.0239 24.7564 15.0312 24.5056 14.332 24.5056C13.5848 24.5056 12.544 24.7564 11.151 25.2528C9.75792 25.7491 8.66911 26 7.87385 26C5.88838 26 4.8903 25.2047 4.8903 23.6142C4.8903 22.6695 5.18919 21.6287 5.835 20.4866C6.43278 19.3444 7.22804 18.2983 8.11937 17.3055C9.0107 16.3128 10.0568 15.5656 11.199 14.9198C12.2985 14.2206 13.3446 13.9217 14.3373 13.9217ZM18.2602 10.4418C17.6144 10.4418 17.0167 10.2443 16.5203 9.79594C16.0239 9.34761 15.677 8.85124 15.4795 8.25346C15.282 7.65568 15.1806 7.06324 15.1806 6.36405C15.1806 5.56879 15.3301 4.7255 15.677 3.88221C16.0239 3.03891 16.5203 2.29169 17.1661 1.64587C17.86 1.00006 18.6072 0.701172 19.4505 0.701172C20.0963 0.701172 20.6941 0.898652 21.1904 1.34699C21.6868 1.79532 22.0391 2.29703 22.2365 2.88947C22.434 3.48725 22.5354 4.07969 22.5354 4.77887C22.5354 5.57413 22.386 6.41743 22.0391 7.26072C21.6921 8.10401 21.1958 8.85124 20.55 9.49705C19.8508 10.1482 19.1089 10.4418 18.2602 10.4418ZM25.3695 8.70713C26.2128 8.70713 26.8586 9.05406 27.307 9.69987C27.7553 10.3457 28.0008 11.0929 28.0008 11.9842C28.0008 12.7795 27.8034 13.6228 27.4031 14.4661C27.0081 15.3094 26.4584 16.0566 25.7645 16.6544C25.0707 17.2522 24.2754 17.551 23.4268 17.551C22.5835 17.551 21.9377 17.2041 21.4893 16.5583C21.041 15.9605 20.7955 15.2186 20.7955 14.37C20.7955 13.5748 20.993 12.7315 21.3932 11.8882C21.7935 11.0449 22.338 10.2976 23.0318 9.69987C23.7256 9.10209 24.5209 8.70713 25.3695 8.70713Z" fill="#2E1313"/>
</svg>
