<svg width="38" height="38" viewBox="0 0 38 38" fill="none" xmlns="http://www.w3.org/2000/svg">
<path d="M17.8273 9.35898C17.8273 10.257 17.6863 11.1551 17.4117 11.9863C17.1371 12.8176 16.6547 13.5078 15.9645 14.1312C15.2742 14.7547 14.5172 15.0293 13.5449 15.0293C12.3723 15.0293 11.3332 14.6137 10.3684 13.7156C9.40352 12.8176 8.71328 11.7785 8.29766 10.6059C7.81523 9.4332 7.60742 8.25313 7.60742 7.15469C7.60742 6.25664 7.74844 5.35859 8.02305 4.52734C8.29766 3.69609 8.78008 3.00586 9.47031 2.38242C10.1605 1.75898 10.9176 1.48438 11.8824 1.48438C13.0551 1.48438 14.0941 1.9 15.059 2.79805C16.0238 3.69609 16.7141 4.73516 17.1297 5.90781C17.6195 7.08047 17.8273 8.25312 17.8273 9.35898ZM10.0195 20.4176C10.0195 21.6645 9.6707 22.6961 9.05469 23.5941C8.43867 24.4922 7.5332 24.9746 6.36055 24.9746C5.18789 24.9746 4.14883 24.559 3.10977 23.7277C2.0707 22.8965 1.31367 21.8648 0.83125 20.6848C0.348828 19.5195 0 18.3469 0 17.241C0 15.9941 0.348828 14.9625 0.964844 14.0645C1.58828 13.1664 2.48633 12.684 3.65898 12.684C4.83164 12.684 5.8707 13.0996 6.90977 13.9309C7.94883 14.7621 8.70586 15.7937 9.18828 16.9738C9.6707 18.1391 10.0195 19.2449 10.0195 20.4176ZM19 19.7941C20.7961 19.7941 22.7332 20.5512 24.8039 22.0059C26.8746 23.4531 28.6039 25.3234 30.0512 27.3941C31.4316 29.5391 32.1219 31.4687 32.1219 33.198C32.1219 33.8883 31.9809 34.5117 31.7063 34.9273C31.4316 35.4098 31.0828 35.7586 30.6004 35.9664C30.118 36.1742 29.6355 36.3152 29.1531 36.4488C28.6707 36.5156 28.0473 36.5898 27.4238 36.5898C26.3848 36.5898 24.9375 36.241 23.1414 35.5508C21.3453 34.8605 19.9648 34.5117 18.9926 34.5117C17.9535 34.5117 16.5063 34.8605 14.5691 35.5508C12.632 36.241 11.118 36.5898 10.0121 36.5898C7.25117 36.5898 5.86328 35.484 5.86328 33.2723C5.86328 31.9586 6.27891 30.5113 7.17695 28.923C8.0082 27.3348 9.11406 25.8801 10.3535 24.4996C11.593 23.1191 13.0477 22.0801 14.6359 21.182C16.1648 20.2098 17.6195 19.7941 19 19.7941ZM24.4551 14.9551C23.557 14.9551 22.7258 14.6805 22.0355 14.057C21.3453 13.4336 20.8629 12.7434 20.5883 11.9121C20.3137 11.0809 20.1727 10.257 20.1727 9.28477C20.1727 8.17891 20.3805 7.00625 20.8629 5.83359C21.3453 4.66094 22.0355 3.62188 22.9336 2.72383C23.8984 1.82578 24.9375 1.41016 26.1102 1.41016C27.0082 1.41016 27.8395 1.68477 28.5297 2.3082C29.2199 2.93164 29.7098 3.6293 29.9844 4.45312C30.259 5.28437 30.4 6.1082 30.4 7.08047C30.4 8.18633 30.1922 9.35898 29.7098 10.5316C29.2273 11.7043 28.5371 12.7434 27.6391 13.6414C26.6668 14.5469 25.6352 14.9551 24.4551 14.9551ZM34.341 12.543C35.5137 12.543 36.4117 13.0254 37.0352 13.9234C37.6586 14.8215 38 15.8605 38 17.1C38 18.2059 37.7254 19.3785 37.1687 20.5512C36.6195 21.7238 35.8551 22.7629 34.8902 23.5941C33.9254 24.4254 32.8195 24.841 31.6395 24.841C30.4668 24.841 29.5687 24.3586 28.9453 23.4605C28.3219 22.6293 27.9805 21.5977 27.9805 20.4176C27.9805 19.3117 28.2551 18.1391 28.8117 16.9664C29.3684 15.7938 30.1254 14.7547 31.0902 13.9234C32.0551 13.0922 33.1609 12.543 34.341 12.543Z" fill="#2E1313"/>
</svg>
