<svg width="42" height="42" viewBox="0 0 42 42" fill="none" xmlns="http://www.w3.org/2000/svg">
<g clip-path="url(#clip0_1048_30)">
<path fill-rule="evenodd" clip-rule="evenodd" d="M8.36675 42C7.3115 42 6.44525 41.1688 6.39975 40.1117C6.174 34.6517 5.53875 19.1992 5.53875 19.1992L2.53575 24.6348C2.21025 25.228 1.498 25.4853 0.868 25.242L0.86625 25.2402C0.33425 25.0338 0 24.528 0 23.9802L0.05075 23.6128L2.954 13.3647C3.23925 12.3603 4.15625 11.6672 5.201 11.6672H36.799C37.8438 11.6672 38.7607 12.3603 39.046 13.3647L41.9492 23.6128L42 23.9802C42 24.528 41.6657 25.0338 41.1337 25.2402L41.132 25.242C40.502 25.4853 39.7897 25.228 39.4643 24.6348L36.4613 19.1992C36.4613 19.1992 35.826 34.6517 35.6003 40.1117C35.5548 41.1688 34.6903 42 33.635 42C32.6007 42 31.752 41.1967 31.6733 40.1677C31.4948 37.898 31.0187 32.4678 30.8752 30.3188C30.8158 29.4263 30.163 28.9012 29.4542 28.9012C28.819 28.9012 28.105 29.4263 28.0473 30.3188C27.902 32.4678 27.426 37.898 27.2493 40.1677C27.1688 41.1967 26.3218 42 25.2892 42H25.2858C24.2323 42 23.366 41.1688 23.3223 40.1117C23.0947 34.6517 22.1952 17.5 22.1952 17.5H19.8363C19.8363 17.5 18.9053 34.6517 18.6777 40.1117C18.634 41.1688 17.7677 42 16.7142 42H16.7108C15.6782 42 14.8313 41.1967 14.7507 40.1677C14.574 37.898 14.098 32.4678 13.9528 30.3188C13.895 29.4263 13.181 28.9012 12.5458 28.9012C11.837 28.9012 11.1842 29.4263 11.1248 30.3188C10.9812 32.4678 10.5052 37.898 10.3267 40.1677C10.248 41.1967 9.401 42 8.36675 42ZM12.5387 0C15.4368 0 17.7887 2.352 17.7887 5.25C17.7887 8.148 15.4368 10.5 12.5387 10.5C9.6425 10.5 7.28875 8.148 7.28875 5.25C7.28875 2.352 9.6425 0 12.5387 0ZM29.4612 0C26.5632 0 24.2113 2.352 24.2113 5.25C24.2113 8.148 26.5632 10.5 29.4612 10.5C32.3575 10.5 34.7113 8.148 34.7113 5.25C34.7113 2.352 32.3575 0 29.4612 0Z" fill="#2E1313"/>
</g>
<defs>
<clipPath id="clip0_1048_30">
<rect width="42" height="42" fill="white"/>
</clipPath>
</defs>
</svg>
