<svg width="59" height="61" viewBox="0 0 59 61" fill="none" xmlns="http://www.w3.org/2000/svg">
<path d="M55 28.6738H34V60.6738H50C52.7614 60.6738 55 58.4353 55 55.6738V28.6738Z" fill="#A196CB"/>
<path d="M4 28.6738H25V60.6738H9C6.23858 60.6738 4 58.4353 4 55.6738V28.6738Z" fill="#A196CB"/>
<path d="M59 22.3789C59 19.6175 56.7614 17.3789 54 17.3789H34V27.3789H59V22.3789Z" fill="#A196CB"/>
<path d="M0 22.3789C0 19.6175 2.23858 17.3789 5 17.3789H25V27.3789H0V22.3789Z" fill="#A196CB"/>
<rect x="26" y="17.3789" width="7" height="43" fill="#A196CB"/>
<path fill-rule="evenodd" clip-rule="evenodd" d="M10.5032 2.16271C8.77734 3.54174 8.49619 6.05875 9.87522 7.7846L16.2365 15.7456H28.3095C28.2321 15.6237 28.1473 15.5048 28.0551 15.3894L17.2622 1.88209C15.8831 0.156241 13.3661 -0.124907 11.6403 1.25413L10.5032 2.16271Z" fill="#A196CB"/>
<path fill-rule="evenodd" clip-rule="evenodd" d="M48.0486 1.7838C49.7744 3.16284 50.0556 5.67984 48.6765 7.40569L42.0141 15.7437H30.0305C30.1563 15.4881 30.3115 15.2422 30.4966 15.0105L41.2896 1.50318C42.6686 -0.222665 45.1856 -0.503814 46.9115 0.875223L48.0486 1.7838Z" fill="#A196CB"/>
</svg>
