<svg width="33" height="34" viewBox="0 0 33 34" fill="none" xmlns="http://www.w3.org/2000/svg">
<path d="M30.7627 15.873H19.0169V33.7714H25.7627C28.5241 33.7714 30.7627 31.5328 30.7627 28.7713V15.873Z" fill="#2E1313"/>
<path d="M2.2373 15.873H13.9831V33.7714H7.23731C4.47588 33.7714 2.2373 31.5328 2.2373 28.7713V15.873Z" fill="#2E1313"/>
<path d="M33 14.5547C33 11.7933 30.7614 9.55469 28 9.55469H19.017V15.1479H33V14.5547Z" fill="#2E1313"/>
<path d="M0 14.5547C0 11.7933 2.23858 9.55469 5 9.55469H13.983V15.1479H0V14.5547Z" fill="#2E1313"/>
<rect x="14.542" y="9.55469" width="3.91525" height="24.0508" fill="#2E1313"/>
<path fill-rule="evenodd" clip-rule="evenodd" d="M6.19197 0.791486C5.05104 1.70314 4.86518 3.3671 5.77684 4.50803L9.08054 8.64258H15.7609C15.675 8.46204 15.5672 8.28846 15.4371 8.12554L9.90851 1.20662C8.99685 0.06569 7.3329 -0.120172 6.19197 0.791486Z" fill="#2E1313"/>
<path fill-rule="evenodd" clip-rule="evenodd" d="M26.558 0.578595C27.699 1.49025 27.8848 3.15421 26.9732 4.29514L23.5011 8.64043H16.9C16.9955 8.38397 17.1328 8.1381 17.3129 7.91265L22.8415 0.993729C23.7532 -0.147201 25.4171 -0.333063 26.558 0.578595Z" fill="#2E1313"/>
</svg>
