<svg width="225" height="98" viewBox="0 0 225 98" fill="none" xmlns="http://www.w3.org/2000/svg">
<path fill-rule="evenodd" clip-rule="evenodd" d="M0.819641 75.5218C0.295331 72.7423 0 70.1408 0 67.8442V52.9351C0 49.98 2.39557 47.5844 5.35065 47.5844C8.30573 47.5844 10.7013 49.98 10.7013 52.9351V58.4935C10.7013 60.1002 12.0037 61.4026 13.6104 61.4026C15.217 61.4026 16.5195 60.1002 16.5195 58.4935V7.8961C16.5195 5.37137 18.5662 3.32468 21.0909 3.32468C23.6156 3.32468 25.6623 5.37137 25.6623 7.8961V39.9481C25.6623 41.0096 26.5229 41.8701 27.5844 41.8701C28.646 41.8701 29.5065 41.0096 29.5065 39.9481V5.14286C29.5065 2.30254 31.809 0 34.6493 0C37.4897 0 39.7922 2.30254 39.7922 5.14286V40C39.7922 41.0328 40.6295 41.8701 41.6623 41.8701C42.6952 41.8701 43.5325 41.0328 43.5325 40V10.3896C43.5325 7.69274 45.7187 5.50649 48.4156 5.50649C51.1125 5.50649 53.2987 7.69274 53.2987 10.3896V45.8182C53.2987 46.7936 54.0895 47.5844 55.0649 47.5844C56.0404 47.5844 56.8312 46.7936 56.8312 45.8182V28.7792C56.8312 26.1397 58.9709 24 61.6104 24C64.2499 24 66.3896 26.1397 66.3896 28.7792V67.8442C66.4532 69.4601 66.4701 71.852 66.466 74.9066C66.4512 85.8764 58.0216 94.8924 47.3106 95.9053C51.0271 93.5068 53.4886 89.3243 53.4886 84.5761C53.4886 84.0882 53.6937 83.6214 54.0539 83.2921L57.5029 80.1387C59.2784 78.5154 59.3405 75.7388 57.6394 74.0377L56.7751 73.1733C55.4632 71.8615 53.3036 71.976 52.1379 73.4193L52.4646 72.1317C53.3029 68.8279 51.7053 65.3897 48.6397 63.8998L48.4928 63.8284C45.2542 62.2545 41.3498 63.3916 39.4626 66.4583L39.2575 66.135C37.4145 63.231 33.7009 62.1487 30.5864 63.6077C27.2091 65.1899 25.7234 69.1871 27.2475 72.591L27.6184 73.4193C26.1266 71.9274 23.7077 71.9274 22.2158 73.4193L21.6964 73.9388C19.9176 75.7176 19.9176 78.6016 21.6964 80.3803L24.6162 83.3002C24.9419 83.6259 25.1249 84.069 25.1249 84.5296C25.1249 89.3618 27.6659 93.6108 31.4845 96H28.7792C15.7505 96 3.23477 88.3247 0.819641 75.5218ZM37.7789 73.3498C38.4159 75.205 37.7858 77.0369 36.3716 77.4413C34.9573 77.8457 33.2944 76.6695 32.6574 74.8143C32.0203 72.959 32.6504 71.1272 34.0647 70.7228C35.4789 70.3184 37.1418 71.4946 37.7789 73.3498ZM32.5918 81.3808C33.0996 80.4024 32.3711 79.0175 30.9647 78.2875C29.5583 77.5575 28.0064 77.7589 27.4986 78.7373C26.9908 79.7156 27.7192 81.1006 29.1257 81.8306C30.5321 82.5606 32.084 82.3592 32.5918 81.3808ZM48.3761 78.5863C46.9697 79.3163 46.2412 80.7012 46.749 81.6796C47.2569 82.658 48.8087 82.8594 50.2151 82.1294C51.6216 81.3994 52.35 80.0145 51.8422 79.0361C51.3344 78.0577 49.7826 77.8563 48.3761 78.5863ZM43.1675 77.4413C41.7532 77.0369 41.1231 75.205 41.7602 73.3498C42.3972 71.4946 44.0601 70.3184 45.4744 70.7228C46.8887 71.1272 47.5187 72.959 46.8817 74.8143C46.2447 76.6695 44.5818 77.8457 43.1675 77.4413ZM34.8884 81.8984L32.4956 84.293C31.294 85.4955 31.294 87.4442 32.4956 88.6467C33.6985 89.8505 35.6496 89.8505 36.8525 88.6467L37.0686 88.4305C38.3908 87.1073 40.5355 87.1073 41.8577 88.4305L42.0738 88.6467C43.2767 89.8505 45.2279 89.8505 46.4308 88.6467C47.6324 87.4442 47.6324 85.4955 46.4308 84.293L44.0379 81.8984C41.5119 79.3706 37.4144 79.3706 34.8884 81.8984Z" fill="#322821"/>
<path d="M97.976 35.92C101.72 35.92 103.592 38.232 103.592 42.856V52H96.056V43.744C96.056 42.752 95.968 42.056 95.792 41.656C95.616 41.256 95.344 41.056 94.976 41.056C94.704 41.056 94.48 41.16 94.304 41.368C94.128 41.56 93.992 41.776 93.896 42.016C93.784 42.304 93.704 42.616 93.656 42.952V52H86.48V36.16H92.744V40.576H93.104C93.104 39.088 93.52 37.944 94.352 37.144C95.2 36.328 96.408 35.92 97.976 35.92ZM113.481 52.24C112.153 52.24 110.921 52.072 109.785 51.736C108.665 51.4 107.689 50.896 106.857 50.224C106.025 49.536 105.377 48.68 104.913 47.656C104.449 46.632 104.217 45.432 104.217 44.056C104.217 42.68 104.449 41.48 104.913 40.456C105.377 39.416 106.025 38.56 106.857 37.888C107.689 37.2 108.665 36.688 109.785 36.352C110.921 36.016 112.153 35.848 113.481 35.848C114.809 35.848 116.033 36.016 117.153 36.352C118.289 36.688 119.273 37.2 120.105 37.888C120.937 38.56 121.585 39.416 122.049 40.456C122.513 41.48 122.745 42.68 122.745 44.056C122.745 45.432 122.513 46.632 122.049 47.656C121.585 48.68 120.937 49.536 120.105 50.224C119.273 50.896 118.289 51.4 117.153 51.736C116.033 52.072 114.809 52.24 113.481 52.24ZM113.481 40.696C112.889 40.696 112.449 41.008 112.161 41.632C111.889 42.24 111.753 43.048 111.753 44.056C111.753 45.064 111.889 45.88 112.161 46.504C112.449 47.128 112.889 47.44 113.481 47.44C114.073 47.44 114.505 47.128 114.777 46.504C115.065 45.88 115.209 45.064 115.209 44.056C115.209 43.048 115.065 42.24 114.777 41.632C114.505 41.008 114.073 40.696 113.481 40.696ZM142.448 47.272V55.696H137.696V52H127.784V55.72H123.032V47.32H124.784L125.288 45.28C125.416 44.736 125.592 44.224 125.816 43.744C126.04 43.248 126.392 42.816 126.872 42.448C127.368 42.08 128.024 41.792 128.84 41.584C129.656 41.36 130.712 41.248 132.008 41.248V40.888H125.312V36.16H140.72V47.272H142.448ZM133.52 42.544H132.896L132.296 47.296H133.52V42.544ZM161.583 52H154.743L154.191 47.656H153.831C153.879 48.376 153.791 49.024 153.567 49.6C153.343 50.16 152.999 50.64 152.535 51.04C152.087 51.424 151.527 51.72 150.855 51.928C150.199 52.136 149.463 52.24 148.647 52.24C146.775 52.24 145.343 51.792 144.351 50.896C143.359 49.984 142.863 48.752 142.863 47.2C142.863 46.288 143.007 45.472 143.295 44.752C143.599 44.016 144.055 43.392 144.663 42.88C145.287 42.368 146.063 41.976 146.991 41.704C147.919 41.432 149.015 41.296 150.279 41.296V40.936H145.023V36.16H157.839L161.583 52ZM151.839 47.464C152.127 47.464 152.359 47.392 152.535 47.248C152.727 47.088 152.871 46.912 152.967 46.72C153.079 46.528 153.151 46.352 153.183 46.192C153.215 46.032 153.231 45.944 153.231 45.928L152.583 41.008C152.215 41.104 151.887 41.28 151.599 41.536C151.327 41.776 151.095 42.072 150.903 42.424C150.727 42.76 150.591 43.136 150.495 43.552C150.415 43.968 150.375 44.392 150.375 44.824C150.375 45.768 150.527 46.448 150.831 46.864C151.135 47.264 151.471 47.464 151.839 47.464ZM172.794 52V47.608L172.77 47.584H172.434C172.434 49.072 172.01 50.216 171.162 51.016C170.33 51.816 169.13 52.216 167.562 52.216C163.834 52.216 161.97 49.912 161.97 45.304V36.16H169.482V44.416C169.482 45.408 169.57 46.104 169.746 46.504C169.922 46.904 170.194 47.104 170.562 47.104C170.834 47.104 171.058 47.008 171.234 46.816C171.426 46.624 171.57 46.408 171.666 46.168C171.778 45.88 171.858 45.56 171.906 45.208V36.16H179.058V52H172.794ZM170.682 34.984C169.978 34.984 169.33 34.872 168.738 34.648C168.146 34.408 167.634 34.088 167.202 33.688C166.77 33.288 166.426 32.832 166.17 32.32C165.93 31.808 165.81 31.264 165.81 30.688H168.33C168.298 31.024 168.394 31.312 168.618 31.552C168.858 31.776 169.162 31.944 169.53 32.056C169.898 32.168 170.298 32.224 170.73 32.224C171.162 32.224 171.554 32.168 171.906 32.056C172.258 31.944 172.538 31.776 172.746 31.552C172.954 31.312 173.026 31.024 172.962 30.688H175.458C175.458 31.264 175.338 31.808 175.098 32.32C174.858 32.832 174.53 33.288 174.114 33.688C173.698 34.088 173.194 34.408 172.602 34.648C172.01 34.872 171.37 34.984 170.682 34.984Z" fill="#322821"/>
<path d="M95.576 63.784H95.216L94.088 73H86L87.608 66.28C87.736 65.736 87.912 65.224 88.136 64.744C88.36 64.248 88.712 63.816 89.192 63.448C89.688 63.08 90.344 62.792 91.16 62.584C91.976 62.36 93.032 62.248 94.328 62.248V61.888H87.44V57.16H101.024L104.504 73H96.68L95.576 63.784ZM123.286 73H116.446L115.894 68.656H115.534C115.582 69.376 115.494 70.024 115.27 70.6C115.046 71.16 114.702 71.64 114.238 72.04C113.79 72.424 113.23 72.72 112.558 72.928C111.902 73.136 111.166 73.24 110.35 73.24C108.478 73.24 107.046 72.792 106.054 71.896C105.062 70.984 104.566 69.752 104.566 68.2C104.566 67.288 104.71 66.472 104.998 65.752C105.302 65.016 105.758 64.392 106.366 63.88C106.99 63.368 107.766 62.976 108.694 62.704C109.622 62.432 110.718 62.296 111.982 62.296V61.936H106.726V57.16H119.542L123.286 73ZM113.542 68.464C113.83 68.464 114.062 68.392 114.238 68.248C114.43 68.088 114.574 67.912 114.67 67.72C114.782 67.528 114.854 67.352 114.886 67.192C114.918 67.032 114.934 66.944 114.934 66.928L114.286 62.008C113.918 62.104 113.59 62.28 113.302 62.536C113.03 62.776 112.798 63.072 112.606 63.424C112.43 63.76 112.294 64.136 112.198 64.552C112.118 64.968 112.078 65.392 112.078 65.824C112.078 66.768 112.23 67.448 112.534 67.864C112.838 68.264 113.174 68.464 113.542 68.464ZM135.265 56.92C139.009 56.92 140.881 59.232 140.881 63.856V73H133.345V64.744C133.345 63.752 133.257 63.056 133.081 62.656C132.905 62.256 132.633 62.056 132.265 62.056C131.993 62.056 131.769 62.16 131.593 62.368C131.417 62.56 131.281 62.776 131.185 63.016C131.073 63.304 130.993 63.616 130.945 63.952V73H123.769V57.16H130.033V61.576H130.393C130.393 60.088 130.809 58.944 131.641 58.144C132.489 57.328 133.697 56.92 135.265 56.92ZM150.506 57.16H158.45L154.682 73H147.674L148.634 69.16H144.05L141.098 57.16H148.85L149.474 64H149.882L150.506 57.16Z" fill="#EA8B1B"/>
<path d="M97.976 77.92C101.72 77.92 103.592 80.232 103.592 84.856V94H96.056V85.744C96.056 84.752 95.968 84.056 95.792 83.656C95.616 83.256 95.344 83.056 94.976 83.056C94.704 83.056 94.48 83.16 94.304 83.368C94.128 83.56 93.992 83.776 93.896 84.016C93.784 84.304 93.704 84.616 93.656 84.952V94H86.48V78.16H92.744V82.576H93.104C93.104 81.088 93.52 79.944 94.352 79.144C95.2 78.328 96.408 77.92 97.976 77.92ZM113.481 94.24C112.153 94.24 110.921 94.072 109.785 93.736C108.665 93.4 107.689 92.896 106.857 92.224C106.025 91.536 105.377 90.68 104.913 89.656C104.449 88.632 104.217 87.432 104.217 86.056C104.217 84.68 104.449 83.48 104.913 82.456C105.377 81.416 106.025 80.56 106.857 79.888C107.689 79.2 108.665 78.688 109.785 78.352C110.921 78.016 112.153 77.848 113.481 77.848C114.809 77.848 116.033 78.016 117.153 78.352C118.289 78.688 119.273 79.2 120.105 79.888C120.937 80.56 121.585 81.416 122.049 82.456C122.513 83.48 122.745 84.68 122.745 86.056C122.745 87.432 122.513 88.632 122.049 89.656C121.585 90.68 120.937 91.536 120.105 92.224C119.273 92.896 118.289 93.4 117.153 93.736C116.033 94.072 114.809 94.24 113.481 94.24ZM113.481 82.696C112.889 82.696 112.449 83.008 112.161 83.632C111.889 84.24 111.753 85.048 111.753 86.056C111.753 87.064 111.889 87.88 112.161 88.504C112.449 89.128 112.889 89.44 113.481 89.44C114.073 89.44 114.505 89.128 114.777 88.504C115.065 87.88 115.209 87.064 115.209 86.056C115.209 85.048 115.065 84.24 114.777 83.632C114.505 83.008 114.073 82.696 113.481 82.696ZM130.64 94H123.464V78.16H131.936L133.832 88.72H134.192L136.112 78.16H144.56V94H137.384V85.744H137.024L135.152 94H132.872L131 85.744H130.64V94ZM154.543 94.24C153.215 94.24 151.983 94.072 150.847 93.736C149.727 93.4 148.751 92.896 147.919 92.224C147.087 91.536 146.439 90.68 145.975 89.656C145.511 88.632 145.279 87.432 145.279 86.056C145.279 84.68 145.511 83.48 145.975 82.456C146.439 81.416 147.087 80.56 147.919 79.888C148.751 79.2 149.727 78.688 150.847 78.352C151.983 78.016 153.215 77.848 154.543 77.848C155.871 77.848 157.095 78.016 158.215 78.352C159.351 78.688 160.335 79.2 161.167 79.888C161.999 80.56 162.647 81.416 163.111 82.456C163.575 83.48 163.807 84.68 163.807 86.056C163.807 87.432 163.575 88.632 163.111 89.656C162.647 90.68 161.999 91.536 161.167 92.224C160.335 92.896 159.351 93.4 158.215 93.736C157.095 94.072 155.871 94.24 154.543 94.24ZM154.543 82.696C153.951 82.696 153.511 83.008 153.223 83.632C152.951 84.24 152.815 85.048 152.815 86.056C152.815 87.064 152.951 87.88 153.223 88.504C153.511 89.128 153.951 89.44 154.543 89.44C155.135 89.44 155.567 89.128 155.839 88.504C156.127 87.88 156.271 87.064 156.271 86.056C156.271 85.048 156.127 84.24 155.839 83.632C155.567 83.008 155.135 82.696 154.543 82.696ZM192.175 89.272H193.879V97.696H189.127V94H185.935V89.608L185.911 89.584H185.575C185.575 91.088 185.159 92.24 184.327 93.04C183.495 93.824 182.287 94.216 180.703 94.216C179.215 94.216 177.983 93.864 177.007 93.16C176.031 92.44 175.415 91.232 175.159 89.536H174.823C174.823 91.04 174.407 92.192 173.575 92.992C172.743 93.776 171.535 94.168 169.951 94.168C166.223 94.168 164.359 91.864 164.359 87.256V78.112H171.871V86.368C171.871 87.376 171.983 88.08 172.207 88.48C172.431 88.864 172.727 89.056 173.095 89.056C173.559 89.056 173.903 88.928 174.127 88.672C174.367 88.416 174.559 87.912 174.703 87.16V78.112L182.527 78.16V86.416C182.527 87.424 182.615 88.128 182.791 88.528C182.967 88.912 183.239 89.104 183.607 89.104C183.879 89.104 184.119 89.008 184.327 88.816C184.551 88.624 184.711 88.408 184.807 88.168C184.919 87.912 184.999 87.592 185.047 87.208V78.16H192.199L192.175 89.272ZM205.372 94V89.608L205.348 89.584H205.012C205.012 91.072 204.588 92.216 203.74 93.016C202.908 93.816 201.708 94.216 200.14 94.216C196.412 94.216 194.548 91.912 194.548 87.304V78.16H202.06V86.416C202.06 87.408 202.148 88.104 202.324 88.504C202.5 88.904 202.772 89.104 203.14 89.104C203.412 89.104 203.636 89.008 203.812 88.816C204.004 88.624 204.148 88.408 204.244 88.168C204.356 87.88 204.436 87.56 204.484 87.208V78.16H211.636V94H205.372Z" fill="#4C32B7"/>
</svg>
