<svg width="16" height="14" viewBox="0 0 16 14" fill="none" xmlns="http://www.w3.org/2000/svg">
<path d="M7.05072 3.23019C7.05072 3.58537 6.99495 3.94054 6.88634 4.2693C6.77773 4.59806 6.58693 4.87105 6.31395 5.11762C6.04096 5.36419 5.74155 5.4728 5.35702 5.4728C4.89323 5.4728 4.48228 5.30842 4.10069 4.95324C3.71909 4.59806 3.4461 4.18711 3.28173 3.72333C3.09093 3.25954 3.00874 2.79282 3.00874 2.35839C3.00874 2.00321 3.06451 1.64803 3.17312 1.31927C3.28172 0.990515 3.47252 0.717527 3.74551 0.470957C4.0185 0.224387 4.3179 0.115779 4.6995 0.115779C5.16329 0.115779 5.57424 0.280159 5.95583 0.635337C6.33743 0.990515 6.61042 1.40146 6.7748 1.86525C6.96853 2.32904 7.05072 2.79282 7.05072 3.23019ZM3.96273 7.60387C3.96273 8.09701 3.82477 8.50502 3.58113 8.8602C3.3375 9.21537 2.97938 9.40617 2.5156 9.40617C2.05181 9.40617 1.64086 9.24179 1.22991 8.91303C0.818964 8.58427 0.519558 8.17626 0.32876 7.70954C0.137962 7.24869 0 6.7849 0 6.34753C0 5.8544 0.137962 5.44638 0.381596 5.0912C0.628166 4.73603 0.983343 4.54523 1.44713 4.54523C1.91091 4.54523 2.32186 4.70961 2.73281 5.03837C3.14376 5.36713 3.44317 5.77514 3.63397 6.24186C3.82477 6.70271 3.96273 7.14008 3.96273 7.60387ZM7.5145 7.3573C8.22486 7.3573 8.99099 7.6567 9.80995 8.23203C10.6289 8.80443 11.3129 9.54413 11.8852 10.3631C12.4312 11.2114 12.7042 11.9746 12.7042 12.6585C12.7042 12.9315 12.6484 13.1781 12.5398 13.3425C12.4312 13.5333 12.2933 13.6712 12.1025 13.7534C11.9117 13.8356 11.7209 13.8914 11.5301 13.9442C11.3393 13.9706 11.0927 14 10.8461 14C10.4352 14 9.86279 13.862 9.15243 13.5891C8.44208 13.3161 7.8961 13.1781 7.51157 13.1781C7.10062 13.1781 6.52823 13.3161 5.7621 13.5891C4.99597 13.862 4.39716 14 3.95979 14C2.86784 14 2.31893 13.5626 2.31893 12.6879C2.31893 12.1683 2.48331 11.5959 2.83849 10.9678C3.16725 10.3396 3.60461 9.76429 4.09482 9.21831C4.58502 8.67233 5.16035 8.26138 5.78852 7.90621C6.3932 7.52168 6.96853 7.3573 7.5145 7.3573ZM9.67199 5.44345C9.31681 5.44345 8.98805 5.33484 8.71506 5.08827C8.44208 4.8417 8.25128 4.56871 8.14267 4.23995C8.03406 3.91119 7.97829 3.58537 7.97829 3.20084C7.97829 2.76347 8.06048 2.29968 8.25128 1.8359C8.44208 1.37211 8.71506 0.961161 9.07024 0.605983C9.45184 0.250806 9.86279 0.0864258 10.3266 0.0864258C10.6818 0.0864258 11.0105 0.195034 11.2835 0.441604C11.5565 0.688173 11.7502 0.964096 11.8588 1.28992C11.9674 1.61868 12.0232 1.9445 12.0232 2.32904C12.0232 2.7664 11.941 3.23019 11.7502 3.69397C11.5594 4.15776 11.2864 4.56871 10.9313 4.92389C10.5467 5.282 10.1387 5.44345 9.67199 5.44345ZM13.5819 4.48946C14.0457 4.48946 14.4008 4.68025 14.6474 5.03543C14.894 5.39061 15.029 5.80156 15.029 6.29176C15.029 6.72913 14.9204 7.19292 14.7002 7.6567C14.483 8.12049 14.1807 8.53144 13.7991 8.8602C13.4175 9.18896 12.9801 9.35334 12.5134 9.35334C12.0496 9.35334 11.6944 9.16254 11.4479 8.80736C11.2013 8.4786 11.0663 8.07059 11.0663 7.60387C11.0663 7.1665 11.1749 6.70271 11.395 6.23893C11.6152 5.77514 11.9146 5.36419 12.2962 5.03543C12.6778 4.70667 13.1152 4.48946 13.5819 4.48946Z" fill="#4C32B7"/>
</svg>
