<svg width="153" height="162" viewBox="0 0 153 162" fill="none" xmlns="http://www.w3.org/2000/svg">
<path d="M66.0569 141.518C69.6017 148.694 77.4376 153.403 92.9228 141.518C94.6641 144.882 98.9302 152.551 102.065 156.318C105.982 161.027 115.266 164.039 121.095 158.785C124.826 155.421 124.639 149.142 122.027 139.724C119.415 130.306 112.139 124.027 108.408 121.336C107.503 120.684 97.96 113.936 85.6466 117.3C70.1614 122.906 62.5121 134.342 66.0569 141.518Z" fill="#4C32B7" fill-opacity="0.4"/>
<ellipse cx="62.3296" cy="110.542" rx="6.97323" ry="8.60032" transform="rotate(-30.1734 62.3296 110.542)" fill="#4C32B7" fill-opacity="0.4"/>
<ellipse cx="88.3742" cy="95.0855" rx="11.4726" ry="14.1495" transform="rotate(-7.19098 88.3742 95.0855)" fill="#4C32B7" fill-opacity="0.4"/>
<ellipse cx="120.517" cy="103.267" rx="11.4726" ry="15.2705" transform="rotate(32.39 120.517 103.267)" fill="#4C32B7" fill-opacity="0.4"/>
<ellipse cx="137.561" cy="132.95" rx="6.30784" ry="8.39603" transform="rotate(65.0537 137.561 132.95)" fill="#4C32B7" fill-opacity="0.4"/>
<path d="M62.1952 140.227C65.779 147.403 73.701 152.112 89.3563 140.227C91.1167 143.591 95.4298 151.26 98.5986 155.027C102.56 159.736 111.945 162.748 117.838 157.494C121.61 154.13 121.421 147.851 118.781 138.433C116.14 129.015 108.784 122.736 105.012 120.045C104.097 119.393 94.4489 112.645 82.0002 116.009C66.3448 121.615 58.6114 133.051 62.1952 140.227Z" stroke="black"/>
<path d="M64.3652 105.953C66.6656 109.91 65.8508 114.459 62.8404 116.209C59.83 117.96 55.4733 116.417 53.1729 112.46C50.8725 108.503 51.6873 103.954 54.6977 102.204C57.7081 100.454 62.0649 101.996 64.3652 105.953Z" stroke="black"/>
<path d="M95.7019 92.377C96.6584 99.9584 92.4444 106.546 86.5242 107.293C80.604 108.04 74.8859 102.705 73.9294 95.124C72.9728 87.5427 77.1868 80.9553 83.107 80.2084C89.0272 79.4615 94.7453 84.7956 95.7019 92.377Z" stroke="black"/>
<path d="M126.224 107.81C124.018 111.288 120.971 113.748 117.848 114.928C114.726 116.107 111.559 115.999 109.047 114.404C106.534 112.81 105.086 109.992 104.823 106.665C104.559 103.337 105.487 99.5323 107.693 96.0542C109.9 92.5761 112.947 90.1157 116.069 88.9361C119.192 87.7567 122.358 87.8654 124.871 89.4594C127.384 91.0535 128.831 93.8716 129.095 97.1991C129.358 100.527 128.431 104.332 126.224 107.81Z" stroke="black"/>
<path d="M136.45 136.881C134.437 137.818 132.346 138.044 130.603 137.674C128.86 137.304 127.495 136.35 126.842 134.945C126.188 133.54 126.337 131.882 127.178 130.311C128.018 128.739 129.538 127.286 131.551 126.349C133.565 125.412 135.656 125.186 137.399 125.556C139.142 125.926 140.507 126.88 141.16 128.285C141.814 129.69 141.664 131.348 140.824 132.919C139.984 134.491 138.464 135.944 136.45 136.881Z" stroke="black"/>
<path d="M18.5941 66.1694C22.3184 71.6395 29.2739 74.5984 40.5933 63.0935C42.4042 65.6485 46.7756 71.4399 49.7735 74.1659C53.5208 77.5734 61.4674 78.9767 65.6386 74.007C68.309 70.8255 67.4373 65.7054 64.2202 58.2923C61.0031 50.8793 54.3262 46.5709 50.9626 44.7947C50.1469 44.3639 41.5602 39.9313 31.8624 44.0954C19.8242 50.4589 14.8699 60.6994 18.5941 66.1694Z" fill="#EA8B1B" fill-opacity="0.4"/>
<ellipse cx="11.9943" cy="41.2323" rx="5.76558" ry="7.11088" transform="rotate(-38.1327 11.9943 41.2323)" fill="#EA8B1B" fill-opacity="0.4"/>
<ellipse cx="31.5534" cy="25.5945" rx="9.48569" ry="11.699" transform="rotate(-15.1504 31.5534 25.5945)" fill="#EA8B1B" fill-opacity="0.4"/>
<ellipse cx="58.809" cy="28.6139" rx="9.48569" ry="12.6259" transform="rotate(24.4306 58.809 28.6139)" fill="#EA8B1B" fill-opacity="0.4"/>
<ellipse cx="76.1652" cy="50.9683" rx="5.21542" ry="6.94197" transform="rotate(57.0943 76.1652 50.9683)" fill="#4C32B7" fill-opacity="0.4"/>
<path d="M15.2815 65.5551C19.0376 71.0207 26.0637 73.9697 37.5224 62.4454C39.349 64.9982 43.7588 70.7842 46.7849 73.5063C50.5675 76.9088 58.5976 78.3005 62.8213 73.3234C65.5252 70.1372 64.6519 65.0174 61.4113 57.6076C58.1707 50.1978 51.4282 45.8986 48.0311 44.127C47.2072 43.6974 38.5346 39.2768 28.7261 43.4564C16.5485 49.8393 11.5254 60.0895 15.2815 65.5551Z" stroke="black"/>
<path d="M13.0678 37.2954C15.3859 40.2483 15.2225 44.0084 13.0081 45.7468C10.7937 47.4852 7.10229 46.7512 4.78415 43.7982C2.46601 40.8453 2.62943 37.0852 4.84384 35.3468C7.05825 33.6084 10.7496 34.3424 13.0678 37.2954Z" stroke="black"/>
<path d="M37.1584 22.5596C38.8018 28.6291 36.1125 34.445 31.4119 35.7178C26.7114 36.9905 21.4551 33.326 19.8117 27.2564C18.1683 21.1869 20.8576 15.371 25.5582 14.0982C30.2587 12.8255 35.515 16.49 37.1584 22.5596Z" stroke="black"/>
<path d="M63.9217 31.6438C62.5202 34.729 60.3193 37.0776 57.9152 38.3912C55.5113 39.7047 52.9352 39.9714 50.7254 38.9676C48.5156 37.9637 47.0217 35.8481 46.4295 33.1736C45.8371 30.4989 46.158 27.2962 47.5595 24.211C48.961 21.1258 51.1619 18.7771 53.566 17.4636C55.9698 16.1501 58.546 15.8834 60.7557 16.8872C62.9655 17.891 64.4595 20.0066 65.0517 22.6811C65.644 25.3559 65.3232 28.5586 63.9217 31.6438Z" stroke="black"/>
<path d="M75.6586 54.2417C74.1314 55.2299 72.4636 55.6485 71.0141 55.5469C69.5649 55.4453 68.3664 54.8301 67.6884 53.7824C67.0105 52.7347 66.9405 51.3894 67.4416 50.0257C67.9427 48.6619 69.008 47.3121 70.5352 46.3239C72.0624 45.3357 73.7302 44.917 75.1796 45.0187C76.6288 45.1203 77.8274 45.7354 78.5053 46.7831C79.1833 47.8308 79.2533 49.1762 78.7522 50.5398C78.251 51.9036 77.1858 53.2535 75.6586 54.2417Z" stroke="black"/>
<path d="M100.998 37.6243C102.673 42.4196 107.242 45.995 117.919 39.7141C118.754 41.9681 120.845 47.1301 122.526 49.7467C124.627 53.0173 130.24 55.6364 134.319 52.7805C136.931 50.9522 137.302 46.9832 136.39 40.8482C135.477 34.7131 131.383 30.1926 129.242 28.2076C128.723 27.7261 123.237 22.7341 115.22 23.8948C105.031 26.2212 99.324 32.8291 100.998 37.6243Z" fill="#EA8B1B" fill-opacity="0.4"/>
<ellipse cx="101.057" cy="17.8244" rx="4.42528" ry="5.45785" transform="rotate(-23.1327 101.057 17.8244)" fill="#EA8B1B" fill-opacity="0.4"/>
<ellipse cx="118.664" cy="10.1165" rx="7.2806" ry="8.97941" transform="rotate(-0.150354 118.664 10.1165)" fill="#EA8B1B" fill-opacity="0.4"/>
<ellipse cx="138.273" cy="17.7695" rx="7.2806" ry="9.69082" transform="rotate(39.4306 138.273 17.7695)" fill="#EA8B1B" fill-opacity="0.4"/>
<ellipse cx="146.7" cy="37.791" rx="4.00302" ry="5.32821" transform="rotate(72.0943 146.7 37.791)" fill="#EA8B1B" fill-opacity="0.4"/>
<path d="M98.6645 36.5108C100.363 41.3091 104.987 44.8912 115.771 38.6236C116.618 40.879 118.738 46.0447 120.441 48.6639C122.569 51.9379 128.246 54.5649 132.366 51.714C135.004 49.889 135.374 45.9197 134.443 39.7825C133.513 33.6452 129.368 29.1185 127.201 27.1302C126.676 26.648 121.124 21.6479 113.022 22.7981C102.726 25.1111 96.9655 31.7125 98.6645 36.5108Z" stroke="black"/>
<path d="M102.53 15.1652C103.647 17.7779 102.777 20.4513 100.868 21.2665C98.9603 22.0817 96.4272 20.8621 95.311 18.2494C94.1948 15.6366 95.0648 12.9632 96.9729 12.148C98.8811 11.3328 101.414 12.5524 102.53 15.1652Z" stroke="black"/>
<path d="M123.305 8.98056C123.318 13.7667 120.199 17.4682 116.547 17.4777C112.895 17.4873 109.757 13.8023 109.744 9.01615C109.732 4.23005 112.851 0.528562 116.503 0.518979C120.155 0.509395 123.293 4.19446 123.305 8.98056Z" stroke="black"/>
<path d="M141.374 20.958C139.736 22.9493 137.659 24.2383 135.643 24.7281C133.626 25.2178 131.703 24.9051 130.299 23.7503C128.895 22.5955 128.216 20.7692 128.307 18.6963C128.398 16.6231 129.262 14.336 130.899 12.3447C132.537 10.3534 134.614 9.06442 136.63 8.57461C138.647 8.08486 140.57 8.3976 141.974 9.55241C143.378 10.7072 144.057 12.5335 143.966 14.6065C143.875 16.6796 143.011 18.9667 141.374 20.958Z" stroke="black"/>
<path d="M145.638 40.0062C144.331 40.4285 143.037 40.4063 142.009 40.052C140.981 39.6977 140.247 39.0262 139.967 38.1573C139.686 37.2884 139.888 36.3147 140.514 35.4258C141.141 34.5367 142.177 33.7618 143.484 33.3395C144.791 32.9173 146.085 32.9395 147.113 33.2938C148.141 33.648 148.875 34.3196 149.155 35.1884C149.436 36.0573 149.234 37.031 148.608 37.9199C147.981 38.809 146.945 39.584 145.638 40.0062Z" stroke="black"/>
</svg>
